<svg width="17" height="17" viewBox="0 0 17 17" fill="none" xmlns="http://www.w3.org/2000/svg">
<path d="M8.4 1.05C10.3493 1.05 12.2188 1.82437 13.5972 3.20276C14.9756 4.58116 15.75 6.45066 15.75 8.4C15.75 10.3493 14.9756 12.2188 13.5972 13.5972C12.2188 14.9756 10.3493 15.75 8.4 15.75C6.45066 15.75 4.58116 14.9756 3.20276 13.5972C1.82437 12.2188 1.05 10.3493 1.05 8.4C1.05 6.45066 1.82437 4.58116 3.20276 3.20276C4.58116 1.82437 6.45066 1.05 8.4 1.05ZM8.4 16.8C10.6278 16.8 12.7644 15.915 14.3397 14.3397C15.915 12.7644 16.8 10.6278 16.8 8.4C16.8 6.17218 15.915 4.03561 14.3397 2.4603C12.7644 0.884998 10.6278 0 8.4 0C6.17218 0 4.03561 0.884998 2.4603 2.4603C0.884998 4.03561 0 6.17218 0 8.4C0 10.6278 0.884998 12.7644 2.4603 14.3397C4.03561 15.915 6.17218 16.8 8.4 16.8ZM11.9208 6.67078C12.1242 6.46734 12.1242 6.13266 11.9208 5.92922C11.7173 5.72578 11.3827 5.72578 11.1792 5.92922L7.35 9.75844L5.62078 8.02922C5.41734 7.82578 5.08266 7.82578 4.87922 8.02922C4.67578 8.23266 4.67578 8.56734 4.87922 8.77078L6.97922 10.8708C7.18266 11.0742 7.51734 11.0742 7.72078 10.8708L11.9208 6.67078Z" fill="#0C3659"/>
</svg>
