<svg width="18" height="18" viewBox="0 0 18 18" fill="none" xmlns="http://www.w3.org/2000/svg">
<path d="M9.23002 1.63997C11.1794 1.63997 13.0489 2.41434 14.4273 3.79273C15.8056 5.17112 16.58 7.04062 16.58 8.98997C16.58 10.9393 15.8056 12.8088 14.4273 14.1872C13.0489 15.5656 11.1794 16.34 9.23002 16.34C7.28068 16.34 5.41117 15.5656 4.03278 14.1872C2.65439 12.8088 1.88002 10.9393 1.88002 8.98997C1.88002 7.04062 2.65439 5.17112 4.03278 3.79273C5.41117 2.41434 7.28068 1.63997 9.23002 1.63997ZM9.23002 17.39C11.4578 17.39 13.5944 16.505 15.1697 14.9297C16.745 13.3544 17.63 11.2178 17.63 8.98997C17.63 6.76215 16.745 4.62557 15.1697 3.05027C13.5944 1.47496 11.4578 0.589966 9.23002 0.589966C7.0022 0.589966 4.86563 1.47496 3.29032 3.05027C1.71501 4.62557 0.830017 6.76215 0.830017 8.98997C0.830017 11.2178 1.71501 13.3544 3.29032 14.9297C4.86563 16.505 7.0022 17.39 9.23002 17.39ZM12.7508 7.26075C12.9542 7.05731 12.9542 6.72262 12.7508 6.51918C12.5474 6.31575 12.2127 6.31575 12.0092 6.51918L8.18002 10.3484L6.4508 8.61918C6.24736 8.41575 5.91267 8.41575 5.70924 8.61918C5.5058 8.82262 5.5058 9.15731 5.70924 9.36075L7.80924 11.4607C8.01267 11.6642 8.34736 11.6642 8.5508 11.4607L12.7508 7.26075Z" fill="#9A9EA7"/>
</svg>
