<svg width="20" height="24" viewBox="0 0 20 24" fill="none" xmlns="http://www.w3.org/2000/svg">
<path d="M14.982 6.47101C14.9858 5.62139 14.762 4.78624 14.334 4.05227C13.9129 3.31505 13.302 2.70411 12.5648 2.283C11.8303 1.85411 10.9943 1.62985 10.1438 1.63353C9.29418 1.6298 8.45904 1.85354 7.72507 2.28153C6.98785 2.70264 6.37691 3.31358 5.9558 4.0508C5.52781 4.78477 5.30407 5.61991 5.30781 6.46954C5.30407 7.31917 5.52781 8.15431 5.9558 8.88828C6.37688 9.62553 6.98783 10.2365 7.72507 10.6576C8.45868 11.0868 9.29384 11.3119 10.1438 11.3092C10.9934 11.313 11.8286 11.0892 12.5626 10.6612C13.2998 10.2401 13.9107 9.62919 14.3318 8.89197C14.761 8.15759 14.9855 7.3216 14.982 6.47101ZM4.61558 6.47101C4.60663 5.49979 4.86142 4.54434 5.35278 3.70653C5.84464 2.86845 6.54214 2.16968 7.37933 1.67629C8.22001 1.19184 9.17354 0.937564 10.1438 0.939094C11.1141 0.937564 12.0676 1.19184 12.9083 1.67629C13.7458 2.16958 14.4435 2.86836 14.9356 3.70653C15.4269 4.54434 15.6817 5.49979 15.6728 6.47101C15.6817 7.44224 15.4269 8.39769 14.9356 9.2355C14.4435 10.0737 13.7458 10.7725 12.9083 11.2657C12.0676 11.7502 11.1141 12.0045 10.1438 12.0029C9.17354 12.0045 8.22001 11.7502 7.37933 11.2657C6.54187 10.7725 5.84411 10.0737 5.35204 9.2355C4.86068 8.39769 4.60663 7.44224 4.61558 6.47101ZM1.1596 21.7619C1.15758 21.8419 1.17183 21.9214 1.20149 21.9956C1.23115 22.0699 1.27561 22.1374 1.33215 22.1939C1.38869 22.2504 1.45614 22.2949 1.5304 22.3246C1.60465 22.3542 1.68417 22.3685 1.7641 22.3664H18.5235C18.6035 22.3685 18.683 22.3542 18.7572 22.3246C18.8315 22.2949 18.8989 22.2504 18.9555 22.1939C19.012 22.1374 19.0565 22.0699 19.0861 21.9956C19.1158 21.9214 19.13 21.8419 19.128 21.7619C19.1276 20.8445 18.944 19.9363 18.588 19.0907C18.2321 18.2451 17.7109 17.479 17.055 16.8375C16.4139 16.1821 15.6484 15.6611 14.8035 15.3052C13.9586 14.9492 13.0511 14.7654 12.1342 14.7645H8.15338C7.23585 14.765 6.32766 14.9487 5.48205 15.3048C4.63644 15.6609 3.87043 16.1822 3.22891 16.8382C2.57381 17.48 2.05336 18.2461 1.69804 19.0915C1.34272 19.937 1.15966 20.8448 1.1596 21.7619ZM0.46885 21.7619C0.476162 19.7236 1.28266 17.7694 2.71509 16.3192C4.16431 14.8881 6.11667 14.082 8.15338 14.0737H12.1342C14.1726 14.081 16.1268 14.8875 17.577 16.32C19.0094 17.7702 19.8159 19.7243 19.8232 21.7627C19.8294 21.9331 19.7978 22.1028 19.7306 22.2596C19.6634 22.4164 19.5624 22.5563 19.4347 22.6694C19.3216 22.7971 19.1817 22.8982 19.0249 22.9653C18.8681 23.0325 18.6984 23.0641 18.5279 23.0579H1.7641C1.59366 23.0641 1.42395 23.0325 1.26717 22.9653C1.1104 22.8982 0.970439 22.7971 0.857352 22.6694C0.729439 22.5563 0.628187 22.4163 0.560883 22.2594C0.493578 22.1025 0.461895 21.9326 0.468112 21.7619H0.46885Z" fill="black" stroke="#232323" stroke-width="0.368598"/>
</svg>
