<svg width="13" height="14" viewBox="0 0 13 14" fill="none" xmlns="http://www.w3.org/2000/svg">
<path d="M11.882 7.13199C12.0014 7.01768 12.0699 6.85765 12.0699 6.69C12.0699 6.52234 12.0014 6.36485 11.882 6.24801L7.41125 1.98051C7.1674 1.74681 6.78129 1.75697 6.55013 2.00083C6.31898 2.24468 6.3266 2.63079 6.57046 2.86195L9.93873 6.08035H1.29958C0.961741 6.08035 0.689941 6.35215 0.689941 6.69C0.689941 7.02784 0.961741 7.29964 1.29958 7.29964H9.93873L6.56791 10.5155C6.32406 10.7492 6.31644 11.1328 6.54759 11.3766C6.77875 11.6205 7.16486 11.6281 7.40871 11.3969L11.8794 7.12945L11.882 7.13199Z" fill="black"/>
</svg>
