<svg width="12" height="13" viewBox="0 0 12 13" fill="none" xmlns="http://www.w3.org/2000/svg">
<path d="M11.192 6.94485C11.3114 6.83055 11.38 6.67051 11.38 6.50286C11.38 6.33521 11.3114 6.17772 11.192 6.06087L6.72131 1.79337C6.47746 1.55968 6.09135 1.56984 5.86019 1.81369C5.62904 2.05755 5.63666 2.44366 5.88051 2.67481L9.24879 5.89322H0.609643C0.271799 5.89322 0 6.16502 0 6.50286C0 6.84071 0.271799 7.11251 0.609643 7.11251H9.24879L5.87797 10.3284C5.63412 10.5621 5.6265 10.9456 5.85765 11.1895C6.08881 11.4333 6.47492 11.441 6.71877 11.2098L11.1895 6.94231L11.192 6.94485Z" fill="white"/>
</svg>
