<svg width="45" height="44" viewBox="0 0 45 44" fill="none" xmlns="http://www.w3.org/2000/svg">
<g clip-path="url(#clip0_1098_1002)">
<mask id="mask0_1098_1002" style="mask-type:luminance" maskUnits="userSpaceOnUse" x="9" y="8" width="27" height="28">
<path d="M35.1367 8.27808H9.00317V35.2763H35.1367V8.27808Z" fill="white"/>
</mask>
<g mask="url(#mask0_1098_1002)">
<path d="M31.7634 28.0186C31.3585 28.0186 30.9627 27.8985 30.626 27.6736C30.2894 27.4486 30.027 27.1288 29.8721 26.7547C29.7172 26.3806 29.6767 25.969 29.7558 25.5719C29.8348 25.1748 30.0299 24.81 30.3163 24.5238C30.6026 24.2376 30.9675 24.0427 31.3646 23.9638C31.7617 23.8849 32.1734 23.9256 32.5474 24.0806C32.9214 24.2357 33.2411 24.4982 33.4659 24.835C33.6907 25.1717 33.8106 25.5676 33.8104 25.9725C33.8097 26.5151 33.5938 27.0353 33.21 27.4188C32.8263 27.8024 32.306 28.0181 31.7634 28.0186Z" stroke="white" stroke-width="1.34969" stroke-miterlimit="10"/>
<path d="M31.6203 27.7613C31.6158 29.4736 30.9336 31.1144 29.7229 32.3252C28.5121 33.536 26.8712 34.2182 25.1589 34.2227H23.8659C22.1537 34.2182 20.5128 33.536 19.302 32.3252C18.0913 31.1144 17.4091 29.4736 17.4045 27.7613V25.0808" stroke="white" stroke-width="1.34969" stroke-miterlimit="10"/>
<path d="M12.0789 12.1166C11.8035 12.1164 11.5344 12.0346 11.3056 11.8814C11.0768 11.7283 10.8985 11.5107 10.7933 11.2563C10.6882 11.0018 10.6608 10.7219 10.7148 10.4518C10.7688 10.1818 10.9016 9.9339 11.0965 9.73939C11.2913 9.54488 11.5395 9.41254 11.8097 9.3591C12.0798 9.30567 12.3597 9.33355 12.6139 9.4392C12.8682 9.54486 13.0854 9.72356 13.2381 9.95268C13.3908 10.1818 13.4721 10.4511 13.4718 10.7264C13.4708 11.0953 13.3237 11.4487 13.0626 11.7093C12.8015 11.9699 12.4478 12.1164 12.0789 12.1166Z" stroke="white" stroke-width="1.34969" stroke-miterlimit="10"/>
<path d="M23.2964 12.1166C23.021 12.1164 22.7519 12.0346 22.5231 11.8814C22.2942 11.7283 22.116 11.5107 22.0108 11.2563C21.9056 11.0018 21.8783 10.7219 21.9323 10.4518C21.9862 10.1818 22.119 9.9339 22.3139 9.73939C22.5088 9.54488 22.757 9.41254 23.0271 9.3591C23.2972 9.30567 23.5771 9.33355 23.8314 9.4392C24.0857 9.54486 24.3029 9.72356 24.4556 9.95268C24.6083 10.1818 24.6896 10.4511 24.6892 10.7264C24.6883 11.0953 24.5411 11.4487 24.28 11.7093C24.019 11.9699 23.6652 12.1164 23.2964 12.1166Z" stroke="white" stroke-width="1.34969" stroke-miterlimit="10"/>
<path d="M10.6858 11.1106V18.7156C10.6917 20.402 11.3642 22.0177 12.5566 23.2102C13.749 24.4028 15.3645 25.0755 17.0509 25.0817H18.3241C20.0104 25.0755 21.6258 24.4029 22.8181 23.2105C24.0105 22.0182 24.6831 20.4028 24.6892 18.7165V11.1106" stroke="white" stroke-width="1.34969" stroke-miterlimit="10"/>
</g>
</g>
<defs>
<clipPath id="clip0_1098_1002">
<rect width="43.19" height="43.19" fill="white" transform="translate(0.905029 0.179932)"/>
</clipPath>
</defs>
</svg>
