<svg width="45" height="44" viewBox="0 0 45 44" fill="none" xmlns="http://www.w3.org/2000/svg">
<g clip-path="url(#clip0_1098_1037)">
<mask id="mask0_1098_1037" style="mask-type:luminance" maskUnits="userSpaceOnUse" x="12" y="8" width="21" height="27">
<path d="M32.9398 8.76794H12.4224V34.2097H32.9398V8.76794Z" fill="white"/>
</mask>
<g mask="url(#mask0_1098_1037)">
<path d="M22.6815 22.7342C24.6259 22.7342 26.2022 21.1579 26.2022 19.2135C26.2022 17.269 24.6259 15.6927 22.6815 15.6927C20.737 15.6927 19.1608 17.269 19.1608 19.2135C19.1608 21.1579 20.737 22.7342 22.6815 22.7342Z" stroke="white" stroke-width="1.07975" stroke-linecap="round" stroke-linejoin="round"/>
<path d="M22.6807 33.8001C22.6807 33.8001 32.5295 27.2338 32.5295 19.0263C32.5295 17.7329 32.2747 16.4522 31.7798 15.2573C31.2849 14.0624 30.5594 12.9767 29.6449 12.0621C28.7303 11.1476 27.6446 10.4221 26.4497 9.92718C25.2548 9.43224 23.9741 9.17749 22.6807 9.17749C21.3874 9.17749 20.1067 9.43224 18.9118 9.92718C17.7169 10.4221 16.6311 11.1476 15.7166 12.0621C14.8021 12.9767 14.0766 14.0624 13.5817 15.2573C13.0867 16.4522 12.832 17.7329 12.832 19.0263C12.832 27.2338 22.6807 33.8001 22.6807 33.8001Z" stroke="white" stroke-width="1.07975" stroke-linecap="round" stroke-linejoin="round"/>
</g>
</g>
<defs>
<clipPath id="clip0_1098_1037">
<rect width="43.19" height="43.19" fill="white" transform="translate(0.905029 0.130005)"/>
</clipPath>
</defs>
</svg>
