<svg width="20" height="20" viewBox="0 0 20 20" fill="none" xmlns="http://www.w3.org/2000/svg">
<path d="M6.37699 0.9522C6.07922 0.232903 5.29418 -0.149948 4.54395 0.0550126L1.14082 0.983138C0.46793 1.16876 0 1.77978 0 2.47587C0 12.0433 7.75758 19.8009 17.325 19.8009C18.0211 19.8009 18.6321 19.3329 18.8177 18.6601L19.7459 15.2569C19.9508 14.5067 19.568 13.7217 18.8487 13.4239L15.1362 11.877C14.5058 11.614 13.7749 11.7958 13.3457 12.3256L11.7833 14.2321C9.06082 12.9443 6.85652 10.7401 5.56875 8.01755L7.47527 6.45907C8.00508 6.02595 8.18684 5.29892 7.92387 4.66857L6.37699 0.956067V0.9522Z" fill="#004EA2"/>
</svg>
